<svg width="30" height="30" viewBox="0 0 30 30" fill="none" xmlns="http://www.w3.org/2000/svg">
<g clip-path="url(#clip0)">
<path fill-rule="evenodd" clip-rule="evenodd" d="M15 0.58252C6.7125 0.58252 0 7.14399 0 15.245C0 21.7332 4.29375 27.2133 10.2562 29.1561C11.0062 29.2844 11.2875 28.8445 11.2875 28.4596C11.2875 28.1114 11.2688 26.9567 11.2688 25.7287C7.5 26.4069 6.525 24.8306 6.225 24.0059C6.05625 23.5843 5.325 22.283 4.6875 21.9348C4.1625 21.6599 3.4125 20.9817 4.66875 20.9634C5.85 20.9451 6.69375 22.0264 6.975 22.4663C8.325 24.684 10.4812 24.0609 11.3437 23.676C11.475 22.7229 11.8688 22.0814 12.3 21.7149C8.9625 21.3483 5.475 20.0836 5.475 14.4752C5.475 12.8807 6.05625 11.5611 7.0125 10.5347C6.8625 10.1681 6.3375 8.66522 7.1625 6.64913C7.1625 6.64913 8.41875 6.26424 11.2875 8.15204C12.4875 7.82213 13.7625 7.65718 15.0375 7.65718C16.3125 7.65718 17.5875 7.82213 18.7875 8.15204C21.6562 6.24591 22.9125 6.64913 22.9125 6.64913C23.7375 8.66522 23.2125 10.1681 23.0625 10.5347C24.0188 11.5611 24.6 12.8624 24.6 14.4752C24.6 20.102 21.0938 21.3483 17.7562 21.7149C18.3 22.1731 18.7688 23.0528 18.7688 24.4274C18.7688 26.3885 18.75 27.9647 18.75 28.4596C18.75 28.8445 19.0312 29.3027 19.7812 29.1561C22.759 28.1733 25.3465 26.3026 27.1796 23.8071C29.0127 21.3117 29.9991 18.3172 30 15.245C30 7.14399 23.2875 0.58252 15 0.58252Z" fill="#955843"/>
</g>
<defs>
<clipPath id="clip0">
<rect width="30" height="29.325" fill="white" transform="translate(0 0.58252)"/>
</clipPath>
</defs>
</svg>
