<svg width="459" height="456" viewBox="0 0 459 456" fill="none" xmlns="http://www.w3.org/2000/svg">
<path id="big-flower" d="M279.889 421.984C278.432 419.691 276.944 417.409 275.542 415.094C273.449 411.649 271.458 408.16 269.365 404.716C266.802 400.514 263.31 396.912 259.67 393.425C256.5 390.387 253.209 387.441 249.998 384.438C244.438 379.227 240.614 373.054 237.317 366.603C233.469 359.084 230.353 351.349 227.27 343.588C226.366 341.307 225.615 338.98 224.565 336.755C224.061 335.712 223.266 334.797 222.254 334.095C220.52 333.009 218.718 332.01 216.857 331.101C216 330.653 215.105 331.073 214.272 331.219C211.945 331.635 209.655 332.217 207.332 332.658C205.374 333.082 203.386 333.387 201.38 333.571C196.953 333.866 192.568 334.529 188.283 335.553C182.853 336.826 177.144 336.865 171.691 335.668C167.906 334.952 164.009 334.82 160.172 335.278C156.948 335.609 153.722 335.907 150.507 336.317C149.236 336.477 148.01 336.921 146.753 337.184C146.38 337.257 145.711 337.262 145.604 337.091C145.515 336.918 145.471 336.729 145.477 336.539C145.482 336.349 145.537 336.162 145.637 335.993C146.259 335.261 146.986 334.602 147.799 334.034C152.074 331.297 156.832 329.286 161.478 327.107C166.815 324.656 172.41 322.664 178.183 321.16C181.889 320.151 185.669 320.263 189.451 320.645C194.288 321.202 199.013 322.351 203.489 324.058C209.306 326.065 214.905 328.529 220.22 331.418C220.321 331.478 220.434 331.518 220.553 331.538C220.672 331.558 220.794 331.556 220.912 331.532C220.165 330.585 219.372 329.662 218.672 328.691C216.403 325.629 213.672 322.853 210.554 320.438C209.233 319.246 207.796 318.159 206.258 317.189C203.763 315.808 201.551 314.041 199.132 312.546C197.441 311.413 195.615 310.446 193.686 309.661C189.495 308.121 185.452 306.285 181.598 304.17C177.841 302.128 173.697 300.954 169.555 299.728C165.903 298.635 162.295 297.449 158.73 296.168C153.906 294.333 149.617 291.56 146.185 288.058C144.426 286.336 142.662 284.616 140.938 282.861C137.42 279.282 133.003 276.704 128.572 274.111C126.854 273.118 125.146 272.103 123.486 271.037C122.928 270.649 122.449 270.181 122.07 269.652C121.987 269.568 121.923 269.471 121.883 269.366C121.843 269.26 121.826 269.149 121.835 269.038C121.844 268.927 121.878 268.819 121.935 268.72C121.991 268.62 122.07 268.532 122.166 268.459C122.264 268.382 122.38 268.323 122.505 268.287C122.631 268.251 122.763 268.239 122.895 268.25C123.472 268.21 124.053 268.283 124.594 268.466C127.829 269.706 131.284 270.18 134.675 271.026C140.49 272.437 146.088 274.463 151.348 277.06C157.321 280.083 163.376 282.991 169.261 286.145C176.251 289.975 182.74 294.473 188.609 299.556C195.106 305.057 201.556 310.6 207.958 316.184C211.132 318.951 214.27 321.763 217.22 324.712C218.99 326.487 220.385 328.567 221.945 330.507C222.108 330.737 222.339 330.924 222.614 331.047C222.166 329.715 221.743 328.374 221.276 327.063C217.903 317.583 214.618 308.075 211.104 298.636C207.952 290.254 204.02 282.116 199.346 274.305C195.502 267.825 191.573 261.397 187.133 255.217C184.741 251.861 182.145 248.61 179.676 245.291C179.512 245.049 179.275 244.853 178.99 244.724C178.706 244.596 178.386 244.541 178.067 244.565C170.559 244.693 163.076 244.182 155.586 243.861C153.207 243.709 150.818 243.931 148.528 244.517C143.278 245.977 137.932 245.931 132.553 245.449C131.045 245.312 129.546 245.106 128.063 244.832C124.587 244.219 121.01 244.199 117.525 244.773C115.894 245.032 114.264 245.309 112.622 245.502C112.424 245.519 112.224 245.494 112.038 245.43C111.853 245.366 111.688 245.264 111.556 245.133C111.239 244.67 111.736 244.422 112.16 244.202C112.883 243.853 113.583 243.471 114.258 243.057C128.15 233.993 143.431 231.187 160.207 235.145C164.508 236.131 168.682 237.504 172.664 239.242C172.876 239.339 173.122 239.361 173.352 239.306C173.008 238.904 172.688 238.494 172.336 238.108C163.922 228.993 154.845 220.485 144.269 213.225C138.732 209.418 133.189 205.716 126.903 202.916C124.333 201.768 121.875 200.417 119.412 199.1C117.728 198.238 116.111 197.278 114.572 196.227C113.209 195.259 111.858 195.436 110.552 195.969C108.651 196.736 106.817 197.626 105.065 198.631C103.73 199.49 102.466 200.43 101.28 201.444C101.091 201.633 100.952 201.857 100.875 202.1C100.631 202.77 100.17 203.362 99.5495 203.806C98.9288 204.249 98.1748 204.524 97.3795 204.596C96.8834 204.671 96.3755 204.692 95.8747 204.742C94.607 204.83 93.393 205.231 92.3727 205.899C91.3699 206.572 90.3051 207.179 89.3448 207.894C88.3238 208.683 87.1247 209.272 85.8262 209.624C84.5278 209.975 83.1595 210.081 81.8113 209.934C77.8603 209.579 74.3844 208.399 71.836 205.554C70.4834 203.926 69.7321 201.971 69.6837 199.955C68.3907 199.372 67.3736 198.405 66.8124 197.226C66.2511 196.047 66.1818 194.731 66.6168 193.511C67.0047 192.156 67.2483 190.773 67.3445 189.378C67.5142 187.85 67.2524 186.308 66.5825 184.89C66.2755 184.179 66.0158 183.453 65.8047 182.715C65.4547 181.513 65.5646 180.243 66.1175 179.101C67.5483 176.092 70.028 173.889 73.0581 172.104C73.2728 171.99 73.504 171.901 73.7455 171.84C73.8961 171.804 74.0501 171.78 74.2056 171.767C74.7188 170.709 75.2133 169.762 75.647 168.78C75.6995 168.517 75.6691 168.246 75.5591 167.998C75.486 167.889 75.4052 167.785 75.317 167.686C73.3207 164.982 73.7313 162.936 76.6639 161.028C77.278 160.634 77.9193 160.275 78.5843 159.951C80.5488 159.069 82.2703 157.819 83.6278 156.29C84.159 155.611 84.9526 155.126 85.8606 154.925C86.7686 154.723 87.7289 154.819 88.5623 155.195C89.6717 155.64 90.7003 156.226 91.6147 156.935C94.5721 159.162 97.499 161.444 100.352 163.755C101.116 164.385 101.829 165.061 102.485 165.777C103.628 167.017 104.28 168.551 104.343 170.147C104.504 172.804 104.839 175.451 105.348 178.074C105.653 179.41 106.233 180.686 107.059 181.838C109.133 184.847 110.985 187.908 111.482 191.462C111.494 191.683 111.582 191.896 111.733 192.073C112.811 193.137 113.974 194.132 115.215 195.049C119.846 198.104 124.917 200.542 130.01 202.939C134.211 204.918 138.183 207.251 141.872 209.904C147.408 213.872 153.1 217.684 158.113 222.187C160.508 224.34 162.833 226.558 165.187 228.746C165.406 228.97 165.673 229.153 165.973 229.286C165.295 228.492 164.602 227.711 163.948 226.908C159.101 220.909 154.201 214.937 149.462 208.877C147.993 206.841 146.662 204.73 145.476 202.555C140.836 194.749 138.154 186.385 136.027 177.814C133.423 167.307 130.504 156.856 127.754 146.365C126.444 141.42 125.234 136.455 123.818 131.531C122.899 128.202 121.616 124.962 120.554 121.668C120.519 121.413 120.369 121.18 120.139 121.022C119.908 120.863 119.616 120.792 119.325 120.823L119.251 120.851C118.464 120.889 117.683 120.989 116.916 121.149C115.429 121.597 113.804 121.531 112.37 120.964C108.79 119.506 104.901 118.726 100.956 118.677C99.8368 118.654 98.7225 118.537 97.6284 118.327C96.1553 118.053 94.6322 118.062 93.1633 118.353C91.6944 118.645 90.3144 119.212 89.1177 120.016C85.9104 122.003 82.8248 124.162 79.7178 126.278C77.2793 127.945 74.6651 128.594 71.6161 127.746C68.3862 126.951 65.0594 126.5 61.7073 126.404C56.7388 126.118 52.8423 124.104 49.8311 120.678C47.9557 118.407 46.7165 115.778 46.2142 113.006C44.8436 107.005 43.5099 101.019 42.2133 95.049C41.2363 90.3485 39.1813 86.1253 35.2052 82.7414C34.4837 82.125 33.8294 81.4378 33.1524 80.7787C31.8655 79.545 31.061 77.9814 30.8567 76.3166C30.6524 74.6519 31.0589 72.9733 32.0168 71.5263C32.6236 70.6256 33.2984 69.7617 34.0368 68.9405C35.6032 67.1868 36.7011 65.1456 37.2493 62.9681C37.7521 61.0344 38.2442 59.0792 38.8789 57.1463C40.434 52.2654 43.9311 49.9934 50.1844 51.0013C54.4779 51.6939 58.7685 52.3363 63.1112 52.7596C66.6076 53.0961 68.1903 53.8 71.0728 55.875C71.1199 55.6692 71.1534 55.4612 71.1731 55.252C71.1204 54.3313 71.1518 53.4085 71.2668 52.4922C71.4717 51.5049 71.8558 50.5529 72.4044 49.6729C73.6599 47.7847 75.1828 46.0382 76.3801 44.121C77.1546 42.8338 77.7432 41.4665 78.1324 40.051C78.7691 37.6687 79.8422 35.3936 81.3098 33.3147C81.717 32.6948 82.2794 32.1647 82.9543 31.7646C83.6293 31.3645 84.3989 31.105 85.2049 31.0058C86.0164 30.8687 86.8381 30.7835 87.6636 30.7508C92.4229 30.7767 96.9631 29.7559 101.417 28.4277C105.903 27.1688 110.18 25.3914 114.134 23.1421C115.125 22.5631 116.06 21.9155 117.027 21.301C118.867 20.1637 121.002 19.4513 123.237 19.2289C124.599 19.037 125.992 19.1085 127.319 19.4384C128.647 19.7684 129.877 20.3488 130.923 21.1394C132.783 22.5097 134.545 23.9797 136.199 25.5412C139.349 28.5545 142.458 31.6028 145.401 34.7726C146.507 35.9607 147.518 36.8517 149.34 37.1684C151.281 37.5038 152.756 38.7434 154.14 40.1212C154.3 39.8411 154.43 39.6309 154.526 39.427C155.436 37.594 156.268 35.7336 157.28 33.945C157.945 32.8576 158.712 31.8204 159.571 30.8442C161.406 28.6506 165.951 27.1975 169.544 28.8651C171.532 29.7688 173.369 30.9085 175.004 32.2521C176.228 33.2799 177.55 34.2131 178.956 35.0415C181.646 36.5802 183.24 38.693 183.323 41.5585C183.384 43.7769 183.452 46.006 183.301 48.2093C183.045 51.6516 183.718 55.0984 185.267 58.2677C186.216 60.1844 187.009 62.1676 187.759 64.1542C188.937 67.2103 188.804 70.5398 187.386 73.5158C187.237 73.7713 187.065 74.0156 186.871 74.2462C186.938 74.3551 187.016 74.4585 187.105 74.5551C189.17 74.5086 191.236 74.4939 193.298 74.4103C194.166 74.3794 195.012 74.1839 195.879 74.1213C196.662 74.059 197.449 74.0559 198.233 74.112C198.809 74.1299 199.375 74.2474 199.899 74.4578C200.423 74.6683 200.895 74.9675 201.287 75.3385C201.68 75.7094 201.985 76.1448 202.187 76.6197C202.388 77.0947 202.481 77.5998 202.46 78.1063C202.458 78.1906 202.45 78.2773 202.439 78.3586C202.25 81.0259 201.517 83.6416 200.276 86.0809C199.727 87.1842 199.069 88.2456 198.467 89.3438C197.432 91.1763 195.8 92.6963 193.78 93.7101C190.253 95.4689 187.214 97.8953 184.884 100.814C183.43 102.656 181.75 104.379 180.126 106.113C178.38 107.868 176.073 109.119 173.507 109.704C172.814 109.835 172.106 109.891 171.398 109.87C169.711 109.957 168.004 109.931 166.334 110.127C164.946 110.285 163.612 110.701 162.421 111.349C161.231 111.997 160.212 112.862 159.432 113.884C157.688 116.024 155.839 118.101 154.054 120.218C152.699 121.792 150.955 123.076 148.954 123.971C147.954 124.456 146.853 124.76 145.717 124.864C144.581 124.969 143.433 124.872 142.34 124.579C141.019 124.257 139.748 123.768 138.456 123.402C135.505 122.574 132.54 121.777 129.577 120.985C129.029 120.836 128.384 120.845 127.92 120.586C125.816 119.465 123.936 120.565 121.852 120.985C122.211 121.933 122.604 122.784 122.863 123.662C124.374 128.864 125.951 134.099 127.375 139.348C130.556 151.08 133.65 162.826 136.786 174.568C138.118 179.544 139.226 184.554 140.941 189.447C144.017 198.198 148.753 206.428 154.947 213.79C162.471 222.791 170.1 231.751 177.667 240.69C182.861 246.786 187.629 253.153 191.945 259.758C194.936 264.322 197.685 269.005 200.541 273.635C200.622 273.796 200.77 273.925 200.954 273.997C200.615 273.047 200.246 272.097 199.938 271.135C199.139 268.666 198.279 266.208 197.579 263.688C194.698 253.345 191.875 242.985 189.034 232.633C187.074 225.521 183.74 218.878 180.192 212.304C177.462 207.248 174.271 202.426 171.04 197.613C168.262 193.405 166.22 188.854 164.982 184.112C163.737 179.516 163.876 174.714 165.383 170.179C166.616 166.357 167.854 162.542 169.098 158.733C170.187 155.47 171.748 152.343 173.743 149.43C177.507 143.863 181.172 138.231 184.903 132.67C185.289 132.059 185.734 131.478 186.233 130.933C186.435 130.721 187.039 130.541 187.233 130.653C187.376 130.773 187.49 130.917 187.569 131.076C187.648 131.236 187.69 131.407 187.693 131.581C187.691 131.929 187.613 132.272 187.465 132.594C185.303 139.198 184.389 146.07 184.76 152.935C184.956 157.402 185.441 161.861 185.903 166.316C186.768 174.624 187.98 182.91 188.297 191.261C188.428 194.712 188.383 198.173 188.274 201.626C188.208 205.276 188.594 208.921 189.424 212.498C189.725 213.962 189.849 215.449 189.796 216.936C189.691 219.145 189.994 221.355 190.692 223.479C190.9 224.28 191.012 225.099 191.025 225.921C191.283 228.27 190.817 230.588 190.755 232.924C190.837 233.931 191.055 234.926 191.405 235.887C193.074 242.147 194.758 248.409 196.459 254.674C196.502 254.874 196.623 255.055 196.8 255.186C196.808 254.849 196.827 254.533 196.816 254.171C196.789 250.755 196.77 247.36 196.759 243.985C196.799 236.028 198.446 228.14 201.623 220.69C202.873 217.744 203.913 214.732 204.736 211.672C205.414 209.172 205.741 206.609 205.71 204.039C205.495 195.629 208.628 188.229 213.894 181.373C216.943 177.416 220.199 173.624 224.588 170.721C225.727 169.996 226.927 169.349 228.179 168.786C228.412 168.691 228.667 168.646 228.923 168.652C229.18 168.659 229.431 168.717 229.658 168.823C229.962 169.053 229.98 169.65 229.986 170.091C229.948 170.408 229.833 170.715 229.651 170.991C226.208 178.092 224.278 185.622 223.084 193.236C222.412 198.055 222.107 202.908 222.173 207.763C222.162 212.046 221.225 215.964 218.256 219.389C215.983 222.06 214.209 225.033 212.999 228.194C210.771 233.677 207.408 238.75 203.08 243.155C201.724 244.574 200.91 246.396 199.55 247.823C198.556 248.885 198.08 250.25 198.225 251.62C198.302 254.282 198.067 256.962 198.276 259.611C198.477 261.536 198.902 263.438 199.546 265.286C200.69 268.791 202.048 272.241 203.257 275.728C203.708 277.052 203.95 278.424 204.291 279.778C204.348 280.086 204.442 280.388 204.57 280.679C209.053 289.053 212.484 297.779 215.593 306.609C219.297 317.125 222.946 327.663 226.714 338.161C228.106 342.034 229.691 345.853 231.318 349.655C233.443 354.623 235.663 359.592 237.951 364.522C242.079 373.601 248.378 381.793 256.419 388.543C260.554 391.954 264.275 395.733 267.525 399.819C269.71 402.742 271.722 405.762 273.553 408.866C275.613 412.214 277.478 415.656 279.442 419.046C279.718 419.566 280.061 420.055 280.464 420.505C280.632 420.663 280.743 420.861 280.782 421.075C280.822 421.289 280.788 421.508 280.685 421.705L279.889 421.984ZM123.173 119.451L123.189 118.982C121.941 118.6 120.7 118.188 119.444 117.848C118.153 117.528 117.029 116.823 116.265 115.854C115.585 114.981 114.736 114.219 113.756 113.604C111.571 112.302 109.241 111.21 106.485 111.13C105.482 111.096 104.481 110.902 103.476 110.863C99.47 110.709 95.6311 109.408 92.5425 107.159C88.3078 104.137 84.02 101.2 79.1665 98.9494C78.0521 98.4113 77.079 97.6728 76.3106 96.7818C75.5423 95.8909 74.9959 94.8675 74.707 93.7785C73.6648 90.3146 73.8574 86.6528 75.2586 83.2884C75.9955 81.5346 76.5147 79.7158 76.8074 77.8638C77.1059 75.5896 77.9723 73.4017 79.3445 71.4565C79.5429 71.1605 79.6866 70.8387 79.7705 70.5031C79.9265 69.8008 80.0274 69.1198 80.2144 68.4506C80.2946 68.2773 80.3033 68.0848 80.239 67.9064C80.1747 67.7281 80.0414 67.5751 79.8623 67.4742C79.0175 66.9435 78.2511 66.3223 77.5809 65.6248C76.3975 64.3118 75.3804 62.8772 74.2285 61.5393C73.0766 60.2013 71.8325 59.0015 70.7466 57.6639C69.7622 56.355 68.318 55.3654 66.6345 54.846C65.0465 54.4333 63.4273 54.1202 61.789 53.9088C60.4041 53.7073 58.9835 53.6993 57.5958 53.4925C54.9727 53.091 52.3771 52.4799 49.7381 52.1938C44.4645 51.6455 41.7641 53.1817 40.4019 57.3463C39.7818 59.235 39.2886 61.1585 38.784 63.0737C38.1866 65.5362 36.958 67.8462 35.1917 69.8276C34.5128 70.5695 33.8957 71.3535 33.3451 72.1736C32.5375 73.3854 32.1916 74.7928 32.358 76.19C32.5244 77.5871 33.1944 78.9008 34.2701 79.9391L37.6087 83.1563C39.7101 85.1081 41.2903 87.4476 42.2343 90.0045C42.8972 91.9474 43.4469 93.9274 43.9245 95.9092C44.581 98.7091 45.0924 101.526 45.755 104.323C46.6531 108.142 47.3248 112.035 48.7057 115.752C50.6403 121.132 54.8921 124.468 61.4704 125.056C65.3528 125.405 69.2176 125.748 72.989 126.699C73.8105 126.901 74.6735 126.936 75.5126 126.801C76.3517 126.667 77.145 126.366 77.8325 125.922C78.4944 125.533 79.1138 125.103 79.7508 124.679C82.7139 122.714 85.6023 120.644 88.6628 118.802C89.9689 117.968 91.4585 117.382 93.0365 117.082C94.6145 116.783 96.2461 116.776 97.8272 117.063C98.9555 117.279 100.104 117.402 101.259 117.43C105.314 117.48 109.31 118.284 112.986 119.79C114.094 120.189 115.323 120.25 116.475 119.962C117.671 119.79 118.878 119.677 120.09 119.624C121.107 119.555 122.174 119.512 123.217 119.466L123.173 119.451ZM117.345 114.849C117.522 115.214 117.785 115.543 118.115 115.813C118.445 116.084 118.836 116.291 119.262 116.421C121.357 117.095 123.421 117.859 125.547 118.509C127.444 119.066 129.425 119.483 131.338 120.028C134.288 120.869 137.257 121.658 140.134 122.676C143.861 124.009 147.311 124.03 150.459 121.628C151.464 120.859 152.385 120.009 153.211 119.089C155.039 117.046 156.778 114.94 158.552 112.86C159.799 111.284 161.574 110.089 163.629 109.443C166.149 108.759 168.787 108.474 171.42 108.602C172.208 108.617 172.992 108.518 173.743 108.309C175.878 107.771 177.775 106.669 179.176 105.154C180.961 103.243 182.76 101.332 184.384 99.3029C186.261 96.9182 188.714 94.9289 191.569 93.4781C194.613 92.0373 196.984 89.7003 198.267 86.8764C198.457 86.4632 198.712 86.0636 198.918 85.6697C200.08 83.3729 200.783 80.9171 200.997 78.4103C201.123 77.7279 200.936 77.0293 200.478 76.468C200.019 75.9067 199.326 75.5285 198.55 75.4165C198.357 75.3899 198.16 75.379 197.965 75.384C196.742 75.3882 195.522 75.4716 194.313 75.6337C189.856 76.0571 185.436 76.0812 181.157 74.7404C178.557 73.9128 175.991 72.9628 173.385 72.1112C172.305 71.7395 171.188 71.458 170.048 71.2704C168.833 71.0911 167.585 71.2606 166.488 71.754C165.39 72.2475 164.503 73.0385 163.957 74.01C163.209 75.4656 161.974 76.6855 160.416 77.5064C159.918 77.7681 159.436 78.049 158.955 78.33C155.784 80.0729 153.176 82.504 151.381 85.3895C149.662 88.3481 148.735 91.6652 147.439 94.8148C147.256 95.2135 147.004 95.5851 146.693 95.9169C146.13 96.5501 145.297 97.0943 144.974 97.7835C144.27 99.4542 143.145 100.962 141.681 102.193C141.073 102.733 140.527 103.323 140.049 103.956C139.153 105.096 138.279 106.279 137.396 107.446C136.342 108.866 134.854 109.995 133.103 110.704C131.088 111.547 129.044 112.344 127.048 113.224C125.984 113.766 124.766 114.028 123.537 113.979C122.782 113.983 122.029 114.069 121.297 114.234C120.017 114.39 118.732 114.626 117.345 114.849V114.849ZM128.619 111.074L128.598 111.031L132.36 109.589C134.091 108.867 135.553 107.728 136.575 106.303C138.157 104.112 139.925 102.029 141.865 100.074C144.147 97.9139 144.517 95.1063 143.729 92.2925C143.267 90.9602 142.708 89.6551 142.057 88.3852C140.68 85.2125 139.313 82.0429 137.954 78.8763C137.682 78.2535 137.448 77.6184 137.253 76.9738C136.88 75.4553 136.033 74.0582 134.808 72.9391C133.583 71.8201 132.028 71.0233 130.318 70.6381C126.327 69.5431 122.816 67.3947 120.26 64.4845C118.692 62.7923 116.982 61.1989 115.311 59.5784C114.31 58.6193 113.681 58.5584 112.525 59.3936C111.712 59.9711 110.962 60.6134 110.284 61.3124C107.057 64.7724 105.083 69.0042 104.617 73.4612C104.315 75.8544 104.328 78.2702 104.656 80.6608C105.005 83.0323 105.976 85.3324 106.664 87.6643C107.351 89.9961 108.165 92.1703 108.678 94.4597C109.137 96.5066 109.218 98.6151 109.516 100.691C110.316 106.23 113.43 110.35 119.249 112.751C119.62 112.941 120.046 113.032 120.474 113.014C123.141 112.634 125.957 112.73 128.279 111.198C128.38 111.146 128.487 111.105 128.598 111.075L128.619 111.074ZM116.704 113.29L116.865 113.055C116.72 112.969 116.583 112.867 116.437 112.795C111.294 110.121 108.85 105.938 108.147 100.921C107.483 96.1898 106.851 91.492 104.988 86.964C103.993 84.6114 103.338 82.1584 103.037 79.6624C102.39 74.448 103.49 69.181 106.201 64.5093C106.331 64.3239 106.475 64.1465 106.631 63.9781C106.551 63.919 106.467 63.8676 106.381 63.8108C105.462 63.8868 104.54 64.0023 103.632 64.1579C100.61 64.8508 97.4301 64.7934 94.4437 63.9922C93.9626 63.8557 93.4551 63.8058 92.9516 63.8454C92.4481 63.885 91.9588 64.0133 91.5128 64.2227C87.913 65.712 84.6893 67.8214 82.0326 70.4261C79.8721 72.584 78.5402 75.2863 78.2263 78.1486C77.9892 79.9103 77.5007 81.6386 76.7723 83.2928C75.6509 85.933 75.2637 88.7709 75.643 91.5695C75.7802 92.9987 76.3281 94.3738 77.2351 95.5656C78.1421 96.7575 79.3786 97.7269 80.8284 98.383C83.423 99.6923 85.9412 101.116 88.3732 102.648C90.1458 103.735 91.7385 105.019 93.4703 106.186C96.3244 108.225 99.8426 109.41 103.514 109.57C104.125 109.593 104.732 109.669 105.347 109.703C108.365 109.809 111.295 110.63 113.827 112.08C114.752 112.549 115.718 112.952 116.716 113.285L116.704 113.29ZM120.324 42.6886C121.001 41.9473 121.709 41.1942 122.4 40.4219C123.266 39.3957 124.441 38.6024 125.791 38.1312C127.142 37.66 128.615 37.5295 130.046 37.7545C131.387 37.8827 132.745 38.1779 134.113 38.2704C135.468 38.4244 136.841 38.419 138.194 38.2543C140.509 37.8422 142.758 37.1475 145.152 36.5703C144.844 36.2 144.601 35.8564 144.304 35.5525C141.105 32.3655 137.949 29.1488 134.683 26.0194C133.196 24.6367 131.613 23.3361 129.943 22.1252C129.003 21.4222 127.893 20.9177 126.697 20.65C125.502 20.3824 124.252 20.3587 123.045 20.581C121.102 20.8158 119.257 21.4765 117.68 22.5024C113.783 25.1352 109.451 27.2287 104.836 28.7105C99.3552 30.5607 93.77 32.0077 87.812 32.0237C86.9494 32.0704 86.0908 32.1635 85.241 32.3025C84.7062 32.378 84.1968 32.5562 83.7491 32.8244C83.3014 33.0926 82.9263 33.4442 82.6505 33.8544C81.3327 35.4953 80.3971 37.3495 79.8977 39.3101C79.1363 42.5897 77.4999 45.6632 75.1234 48.2773C73.2461 50.3845 72.191 52.6776 72.6774 55.4142C72.7335 55.5276 72.6861 55.6678 72.7177 55.7906C73.0766 57.1049 73.2064 58.4877 74.1942 59.6123C75.182 60.7369 76.1664 61.8693 77.1462 62.9777C77.3065 63.154 77.479 63.3255 77.7182 63.5872C77.7385 62.6993 77.6999 61.9432 77.7748 61.195C77.9539 59.3597 78.2043 57.5356 78.3772 55.7027C78.4401 54.5056 78.8614 53.3443 79.5984 52.3364C80.3353 51.3286 81.3619 50.5099 82.5741 49.9633C84.3409 49.118 86.1743 48.3852 88.0602 47.7705C90.0329 47.1088 91.6538 45.8231 92.6057 44.1652C93.1215 43.3636 93.5745 42.509 94.1151 41.7429C94.494 41.1274 95.02 40.5915 95.6569 40.1721C96.2938 39.7528 97.0266 39.4599 97.8046 39.3137C99.4968 38.98 101.247 38.9421 102.956 39.2022C108.814 40.0563 114.608 41.223 120.305 42.6957L120.324 42.6886ZM186.001 220.465L186.161 220.404C186.104 220.098 186.078 219.794 185.992 219.473C184.798 214.836 183.815 210.138 182.341 205.57C180.782 200.74 179.579 195.907 179.701 190.875C179.731 187.443 179.144 184.027 177.961 180.756C177.349 178.961 177.258 177.023 176.984 175.143C176.919 174.686 176.986 174.07 177.723 174.07C178.461 174.07 178.368 174.664 178.444 175.142C178.725 176.962 178.84 178.89 179.445 180.656C180.621 183.966 181.209 187.416 181.187 190.884C181.091 194.92 181.705 198.945 183.007 202.816C184.928 208.374 186.446 214.034 187.552 219.762C187.823 221.135 188.176 222.497 188.546 223.878C188.755 224.684 189.059 225.474 189.32 226.266L189.708 226.195C189.655 225.394 189.525 224.6 189.32 223.819C188.586 221.618 188.268 219.327 188.378 217.036C188.438 215.577 188.313 214.117 188.003 212.683C187.174 209.075 186.785 205.399 186.845 201.718C186.938 198.264 187.02 194.802 186.873 191.351C186.486 182.12 185.208 172.948 184.159 163.753C183.164 155.198 182.777 146.661 184.545 138.14C184.734 137.225 184.943 136.304 185.138 135.387C184.855 135.578 184.618 135.817 184.443 136.091L174.509 150.948C172.88 153.387 171.603 155.995 170.709 158.713C169.412 162.641 168.144 166.583 166.868 170.522C165.329 175.215 165.293 180.19 166.766 184.899C168.087 189.428 170.144 193.765 172.874 197.777C177.034 203.762 180.755 209.974 184.013 216.377C184.651 217.739 185.336 219.121 186.001 220.465ZM185.329 74.3619C186.271 72.8939 186.854 71.2697 187.043 69.5925C187.232 67.9152 187.022 66.2218 186.427 64.6199C185.942 63.1238 185.334 61.6605 184.609 60.2416C182.294 55.9803 181.376 51.2357 181.956 46.5406C182.058 44.9578 182.038 43.3707 181.897 41.7903C181.883 40.6482 181.534 39.5285 180.885 38.5396C180.235 37.5506 179.306 36.7259 178.188 36.1452C176.697 35.2715 175.387 34.161 173.961 33.198C172.535 32.235 171.012 31.1805 169.437 30.3002C168.518 29.789 167.465 29.4925 166.38 29.4388C165.294 29.3852 164.21 29.5761 163.232 29.9935C162.011 30.4804 160.966 31.2542 160.213 32.2297C158.169 34.8875 156.613 37.8121 155.604 40.896C155.478 41.6085 155.549 42.3372 155.809 43.0208C156.443 45.5532 157.345 48.0533 157.751 50.6279C158.081 53.2536 159.267 55.7394 161.165 57.7864C163.011 59.7956 164.399 62.0988 165.255 64.5701C165.935 66.4163 166.299 68.3585 166.83 70.3455C168.652 69.602 170.669 69.8697 172.641 70.4757C173.898 70.8611 175.106 71.3682 176.325 71.8389C179.216 72.9466 182.226 73.7942 185.311 74.3689L185.329 74.3619ZM150.946 83.3332C151.048 83.3073 151.145 83.2701 151.235 83.2226C151.401 83.0563 151.561 82.8791 151.71 82.7066C153.757 80.2813 156.317 78.2252 159.247 76.6503C160.847 75.8828 162.108 74.6666 162.83 73.1955C163.136 72.5889 163.579 72.0433 164.132 71.5917C164.427 71.3836 164.66 71.1147 164.809 70.8088C164.958 70.503 165.019 70.1695 164.987 69.8379C164.957 69.1757 164.874 68.5161 164.739 67.8641C163.881 64.1536 162.013 60.6814 159.297 57.7444C157.688 55.9385 156.686 53.7723 156.404 51.4911C156.1 49.6096 155.67 47.7381 155.197 45.8831C154.724 44.028 154.213 42.2003 152.721 40.7357C151.296 39.1933 149.234 38.2115 146.987 38.006C145.284 37.9031 143.577 38.1526 142.003 38.7345C138.846 39.8002 135.402 40.0255 132.101 39.3823C131.258 39.2429 130.412 39.143 129.553 39.074C128.476 38.9194 127.372 39.0208 126.355 39.3678C125.338 39.7147 124.445 40.2945 123.768 41.0472C121.679 43.479 119.267 45.6824 116.584 47.6105C116.024 48.1408 115.553 48.7389 115.185 49.3865C116.253 50.0691 117.145 50.646 118.113 51.258C119.073 50.2476 120.226 50.2616 121.49 50.381C122.951 50.5148 123.998 51.2571 125.038 52.0597C125.85 52.7393 126.81 53.2679 127.859 53.6139C128.909 53.9599 130.027 54.1163 131.147 54.0737C137.086 53.7244 141.839 55.802 145.187 60.0114C147.138 62.4757 148.587 65.2992 150.216 67.9834C151.066 69.569 151.401 71.331 151.181 73.0737C150.984 76.3614 150.945 79.6591 150.84 82.9564C150.867 83.0104 150.874 83.1426 150.897 83.352L150.946 83.3332ZM198.243 245.921L198.431 245.946C198.596 245.439 198.75 244.924 198.924 244.421C199.717 242.144 200.287 239.8 201.35 237.613C203.542 233.059 206.01 228.606 208.296 224.08C209.065 222.588 209.716 221.05 210.245 219.479C210.965 217.276 211.454 215.033 212.199 212.852C213.243 209.685 214.003 206.452 214.471 203.18C214.632 202.18 214.86 201.181 215.082 200.183C215.173 199.763 215.364 199.279 215.966 199.491C216.251 199.594 216.452 200.134 216.453 200.474C216.39 201.009 216.287 201.54 216.144 202.063C215.482 206.857 214.311 211.586 212.647 216.188C212.358 217.007 212.13 217.841 211.963 218.686C211.459 221.06 210.529 223.348 209.209 225.465C205.928 231.02 202.94 236.695 200.976 242.754C200.905 242.993 200.86 243.242 200.76 243.646L202.431 241.843C205.153 239.083 207.454 236.021 209.276 232.737C210.583 230.232 211.625 227.616 212.859 225.081C213.499 223.808 214.221 222.568 215.022 221.368C215.676 220.418 216.389 219.501 217.159 218.621C219.853 215.449 220.781 211.882 220.701 207.961C220.473 201.165 221.14 194.369 222.69 187.708C224.116 181.932 225.554 176.165 228.234 170.711C228.291 170.515 228.321 170.314 228.324 170.111C227.198 170.787 226.213 171.319 225.302 171.912C221.752 174.327 218.968 177.347 216.372 180.539C210.53 187.718 206.802 195.481 207.215 204.529C207.324 207.966 206.725 211.393 205.448 214.643C204.377 217.508 203.376 220.397 202.252 223.243C199.431 230.434 198.08 238.008 198.259 245.613C198.244 245.716 198.239 245.819 198.243 245.921V245.921ZM145.712 94.6291C145.843 94.5402 145.968 94.4986 145.999 94.4288C146.717 92.7082 147.456 90.986 148.133 89.2555C148.616 88.0041 149.019 86.7252 149.449 85.4554C149.497 85.3008 149.514 85.14 149.499 84.9803C149.561 80.6841 149.701 76.3651 149.735 72.0412C149.792 71.1259 149.642 70.2097 149.292 69.3462C147.815 66.2761 146.254 63.2127 143.974 60.5405C140.822 56.8599 136.616 54.9581 131.26 55.2447C129.849 55.2913 128.444 55.0802 127.131 54.6247C125.818 54.1692 124.627 53.4793 123.633 52.5984C123.219 52.2431 122.729 51.964 122.192 51.7774C121.654 51.5907 121.08 51.5003 120.502 51.5114C120.238 51.4737 119.967 51.5292 119.749 51.6656C119.531 51.8021 119.383 52.0087 119.337 52.2406L119.324 52.3482C118.792 54.5759 118.206 56.7984 117.608 59.0125C117.534 59.2028 117.52 59.4073 117.569 59.6039C117.617 59.8005 117.726 59.9817 117.883 60.1278C119.337 61.5492 120.768 62.9942 122.177 64.4628C124.079 66.474 126.536 68.0228 129.312 68.9615C130.323 69.3064 131.344 69.615 132.348 69.9755C133.622 70.4032 134.78 71.0621 135.746 71.9095C136.712 72.7569 137.464 73.7736 137.953 74.8937C138.451 75.9876 138.881 77.1654 139.276 78.3179C140.443 81.7202 141.891 85.0428 143.609 88.2594C144.61 90.1496 145.515 92.1091 145.536 94.2596C145.574 94.3895 145.633 94.5139 145.712 94.6291V94.6291ZM193.421 308.092L193.521 307.926C193.251 307.734 192.99 307.532 192.706 307.358C189.307 305.256 185.985 303.06 182.493 301.097C177.937 298.532 173.212 296.2 168.599 293.683C161.843 289.951 155.156 286.136 148.439 282.363C148.016 282.127 147.588 281.809 147.958 281.391C148.115 281.29 148.299 281.225 148.493 281.201C148.686 281.177 148.883 281.196 149.066 281.256C149.809 281.578 150.524 281.948 151.206 282.363C158.017 286.176 164.697 290.213 171.668 293.792C179.842 297.979 187.747 302.561 195.347 307.515C195.682 307.733 196.036 307.932 196.383 308.133C196.227 307.775 195.969 307.458 195.635 307.212C193.051 305.041 190.463 302.877 187.87 300.719C182.004 295.804 175.85 291.193 168.905 287.489C162.818 284.207 156.551 281.168 150.358 278.056C144.142 275.002 137.454 272.761 130.503 271.405C128.643 271.026 126.85 270.428 125.027 269.932L124.178 269.692L124.042 269.918C125.832 270.966 127.606 272.027 129.402 273.06C133.941 275.663 138.432 278.317 142.026 281.962C143.776 283.74 145.538 285.499 147.334 287.239C150.654 290.463 154.406 293.188 159 294.812C163.911 296.559 168.967 297.994 173.916 299.656C176.338 300.471 178.71 301.4 181.019 302.439C184.077 303.837 187.006 305.373 190.027 306.798C191.13 307.285 192.263 307.717 193.421 308.092V308.092ZM148.551 335.05L148.658 335.266C149.012 335.214 149.333 335.155 149.704 335.109C154.278 334.64 158.881 334.161 163.456 333.769C167.42 333.457 171.295 334.22 175.15 334.882C178.305 335.463 181.564 335.45 184.713 334.846C191.022 333.5 197.43 332.546 203.892 331.992C205.723 331.855 207.504 331.25 209.311 330.859L209.274 330.623C209.007 330.584 208.737 330.526 208.479 330.491C206.335 330.246 204.157 330.124 202.054 329.741C195.631 328.567 189.263 328.862 182.893 329.756C179.975 330.161 177.09 330.734 174.174 331.171C173.862 331.219 173.479 330.904 173.128 330.755C173.337 330.47 173.481 330.081 173.784 329.926C174.215 329.767 174.672 329.67 175.138 329.638L180.25 328.829C187.704 327.661 195.111 327.179 202.62 328.496C205.821 329.062 209.137 329.21 212.392 329.53C212.693 329.563 212.996 329.556 213.457 329.572C213.343 329.469 213.221 329.374 213.09 329.288C206.722 326.487 200.269 323.866 193.273 322.494C188.766 321.607 184.188 321.107 179.661 322.155C176.161 322.928 172.736 323.946 169.42 325.2C164.481 327.125 159.675 329.334 154.883 331.543C152.687 332.578 150.669 333.872 148.551 335.05ZM108.941 187.246L108.71 187.296C107.999 185.859 107.274 184.396 105.782 183.478C104.78 182.935 103.718 182.481 102.614 182.123C100.498 181.315 98.38 180.533 96.2282 179.771C93.6913 178.908 90.9955 178.463 88.2754 178.458C86.2201 178.436 85.6119 178.978 85.6771 180.79C85.768 182.352 85.3482 183.904 84.4673 185.262C83.8946 186.171 83.3838 187.109 82.9376 188.071C82.2449 189.622 81.673 191.209 82.3919 192.867C83.1598 194.76 84.4296 196.465 86.0958 197.84C87.9386 199.305 91.2005 200.553 94.0315 198.839C94.9753 198.38 95.9657 198.001 96.9897 197.705L99.9417 196.573C101.048 196.059 102.197 195.619 103.378 195.256C105.084 194.872 106.815 194.586 108.562 194.399C108.899 194.392 109.222 194.282 109.478 194.089C109.733 193.897 109.906 193.632 109.966 193.341C110.114 192.922 110.164 192.481 110.113 192.045C109.741 190.453 109.326 188.878 108.941 187.246ZM104.161 179.57C103.677 176.544 102.747 173.765 102.929 170.875C102.99 169.904 102.804 168.934 102.385 168.035C101.966 167.135 101.324 166.329 100.507 165.675C99.8463 165.093 99.1446 164.546 98.4491 163.997C96.2625 162.265 94.1008 160.569 91.9058 158.879C90.969 158.093 89.9614 157.375 88.8927 156.732C87.135 155.749 85.6783 155.992 84.4515 157.452C83.1555 158.899 81.521 160.084 79.659 160.927C78.6022 161.469 77.5951 162.083 76.6467 162.762C76.1277 163.097 75.7629 163.585 75.6191 164.137C75.4753 164.688 75.5622 165.267 75.8638 165.767C76.2001 166.521 76.7185 167.202 77.3831 167.762C78.0478 168.323 78.8428 168.75 79.7133 169.013C80.7594 169.36 81.8327 169.64 82.9249 169.851C89.1662 170.908 94.6016 173.405 99.6373 176.717C101.06 177.643 102.538 178.535 104.167 179.568L104.161 179.57ZM116.042 243.369L116.148 243.585C116.502 243.546 116.848 243.523 117.193 243.467C120.994 242.837 124.9 242.868 128.688 243.558C130.313 243.849 131.956 244.056 133.609 244.177C138.422 244.671 143.298 244.36 147.98 243.262C150.241 242.729 152.578 242.482 154.919 242.529C159.42 242.564 163.921 242.85 168.421 243.046C170.236 243.128 172.053 243.228 173.873 243.32C173.84 243.256 173.791 243.199 173.728 243.155C173.666 243.111 173.592 243.08 173.513 243.066C168.486 242.057 163.47 241.012 158.429 240.047C155.475 239.429 152.42 239.281 149.407 239.612C146.881 239.938 144.313 240.061 141.768 240.26C139.561 240.463 137.321 240.583 135.099 240.741C134.993 240.749 134.872 240.828 134.782 240.779C134.466 240.643 134.155 240.473 133.828 240.329C134.025 240.061 134.247 239.809 134.491 239.573C134.679 239.476 134.893 239.425 135.112 239.426C136.719 239.266 138.325 239.087 139.941 238.975C141.989 238.832 144.063 238.892 146.084 238.624C151.227 237.907 156.484 238.149 161.515 239.333C165.449 240.26 169.458 240.952 173.428 241.743C173.783 241.813 174.141 241.843 174.498 241.899C169.677 238.061 154.031 234.249 144.019 234.617C133.902 235.007 124.149 238.052 116.015 243.36L116.042 243.369ZM80.5733 190.301C79.1714 189.431 77.9239 188.638 76.646 187.9C76.5037 187.832 76.3451 187.794 76.1829 187.789C76.0207 187.784 75.8596 187.813 75.7123 187.873C74.5748 188.643 73.3898 189.405 72.9575 190.715C71.9996 193.587 71.1579 196.473 71.1925 199.492C71.2196 203.336 73.225 206.088 77.1891 207.575C81.3355 209.121 85.4146 209.439 89.1081 206.443C89.6137 206.03 90.1672 205.665 90.7594 205.354C91.8827 204.733 93.0579 204.188 94.275 203.724C95.168 203.509 96.0857 203.384 97.0106 203.35C98.0347 203.221 99.0151 202.871 99.3282 201.999C99.7095 200.757 100.012 199.498 100.235 198.227C100.153 198.15 100.062 198.069 99.9733 197.994C97.9481 198.77 95.8872 199.489 93.8852 200.327C92.2448 201.002 90.3741 201.104 88.6516 200.612C84.3509 199.639 79.8812 193.74 80.5733 190.301ZM81.518 66.5119C82.7653 65.5936 83.7935 64.467 84.5433 63.1971C85.2931 61.9273 85.7495 60.5394 85.8864 59.1136C86.1752 56.6327 87.3248 54.2901 89.1792 52.4038C89.651 51.8803 90.2358 51.4441 90.8999 51.1201C91.564 50.796 92.2944 50.5907 93.049 50.5158C93.9757 50.4111 94.916 50.3783 95.8729 50.3199C96.8819 50.3104 97.8771 50.112 98.7923 49.738C99.7074 49.3639 100.522 48.8228 101.181 48.1505C103.187 46.0967 105.823 45.7286 108.744 46.7031C110.507 47.3124 112.273 47.798 114.155 48.3681C114.982 46.4257 117.462 45.5202 119.112 43.7506C118.364 43.4855 117.6 43.2572 116.824 43.0667C112.451 42.2438 108.088 41.4108 103.701 40.6769C102.282 40.4578 100.841 40.3749 99.4015 40.4297C98.4725 40.4231 97.5622 40.6596 96.7862 41.1091C96.0103 41.5586 95.4038 42.201 95.0438 42.9544C94.6251 43.7266 94.1587 44.478 93.6465 45.2052C92.6192 46.8959 90.9349 48.2051 88.9012 48.8936C87.3172 49.4108 85.769 50.0299 84.243 50.6791C81.8736 51.6451 80.2162 53.1348 79.9215 55.5476C79.6588 57.6269 79.3302 59.7058 79.253 61.7911C79.1161 63.6231 79.237 65.504 81.518 66.5119ZM76.997 169.264C76.2366 171.194 75.5232 173.041 74.7825 174.893C73.975 177.038 73.864 179.338 74.462 181.535C75.06 183.733 76.3432 185.74 78.1673 187.33C78.906 188.031 79.8908 188.492 80.9637 188.642C81.4327 187.819 81.8217 186.983 82.3033 186.201C83.5215 184.237 84.4571 182.234 84.2837 179.878C84.1664 178.536 85.3619 177.499 86.8853 177.243C87.3818 177.165 87.886 177.131 88.3904 177.142C90.8507 177.149 93.2926 177.515 95.6164 178.226C97.684 178.892 99.6901 179.684 101.73 180.412C102.129 180.554 102.576 180.646 102.964 180.78L103.098 180.549C102.886 180.359 102.659 180.182 102.419 180.019C99.6342 178.318 96.865 176.604 94.0627 174.942C91.5091 173.495 88.7064 172.422 85.7631 171.763C82.8138 171.101 79.8116 170.672 76.997 169.264ZM106.272 62.4263C106.329 61.5012 106.155 60.5763 105.761 59.7171C105.367 58.8578 104.763 58.0853 103.992 57.4543C102.327 55.9659 100.833 54.3351 99.2231 52.7939C98.8091 52.4178 98.3317 52.1003 97.8075 51.8525C96.5057 51.2144 95.1245 51.6988 93.7825 51.7314C93.021 51.7454 92.2749 51.9224 91.6086 52.2471C90.9424 52.5719 90.3762 53.0346 89.9591 53.5952C88.5023 55.2648 87.5957 57.2547 87.3384 59.3472C87.1163 61.968 85.8599 64.438 83.7864 66.3298C83.3645 66.7164 82.9391 67.1107 82.5428 67.5196C82.274 67.8025 82.0572 68.1168 81.7485 68.4665C81.9708 68.4583 82.0597 68.4757 82.1034 68.446C82.3456 68.2568 82.5852 68.0622 82.8159 67.8646C85.3588 65.7919 88.2684 64.0973 91.4305 62.8473C91.8836 62.6461 92.3779 62.5265 92.8843 62.4957C93.3907 62.4649 93.899 62.5234 94.3793 62.6678C98.3522 63.9074 102.255 63.1629 106.272 62.4263ZM116.404 58.5425C116.811 56.7099 117.169 54.9989 117.585 53.3039C117.644 53.0632 117.615 52.8125 117.503 52.5868C117.392 52.3612 117.202 52.172 116.962 52.0459C114.158 49.9085 110.849 48.7103 107.437 47.6604C106.641 47.4162 105.784 47.3681 104.959 47.5213C104.134 47.6745 103.372 48.0231 102.756 48.5296C101.686 49.3186 100.686 50.2481 99.4676 51.2676C101.219 52.9604 103.02 54.769 104.894 56.5045C106.359 57.8702 107.506 59.3002 107.626 61.2391C107.669 61.471 107.737 61.6986 107.831 61.9185C108.438 61.2557 108.929 60.6692 109.482 60.1358C110.051 59.6032 110.656 59.1011 111.293 58.6322C113.174 57.2689 114.19 57.2264 116.373 58.5674L116.404 58.5425ZM69.6437 198.473L69.7838 197.739C70.2709 195.567 70.7227 193.383 71.2574 191.219C71.6007 189.703 72.5717 188.353 73.982 187.431C74.4502 187.123 74.8652 186.752 75.3058 186.403C72.3354 182.248 71.8551 177.961 73.8626 173.286C71.7219 174.44 69.8903 175.988 68.4937 177.824C67.0009 179.867 66.6755 181.893 67.8036 184.127C68.7824 186.059 69.1188 188.195 68.7739 190.288C68.5722 191.65 68.3123 192.983 67.9689 194.31C67.5529 195.947 68.1996 197.209 69.6437 198.473ZM101.534 199.464L106.501 196.224L104.687 196.438C101.911 196.731 101.911 196.731 101.487 199.193C101.503 199.284 101.526 199.374 101.555 199.462L101.534 199.464Z" fill="#BD8846" fill-opacity="0.7" stroke="#BD8846" stroke-opacity="0.7" stroke-width="0.736385" stroke-miterlimit="10"/>

<path d="M263.549 314.782C263.284 310.514 263.055 306.245 262.754 301.977C261.802 288.593 261.401 275.221 262.296 261.812C262.582 257.511 262.78 253.205 262.89 248.895C262.795 247.884 262.555 246.887 262.174 245.927C262.06 245.51 261.845 245.118 261.773 244.683C260.793 238.684 256.992 234.26 251.502 230.795C250.17 229.961 248.789 229.189 247.365 228.48C246.917 228.256 246.393 228.175 245.883 228.25C244.313 228.509 242.766 228.863 241.252 229.308C236.847 230.627 232.732 232.588 229.084 235.107C226.822 236.731 224.567 238.361 222.19 239.854C220.393 240.958 218.522 241.968 216.586 242.878C213.007 244.583 209.514 246.35 205.849 247.819C203.637 248.702 201.597 249.822 199.407 250.731C197.422 251.574 195.308 252.165 193.13 252.485C188.391 253.188 184.017 255.143 180.603 258.085C178.334 259.952 176.087 261.856 173.982 263.86C169.437 268.159 166.56 273.367 163.825 278.619C163.382 279.495 162.887 280.35 162.344 281.182C162.036 281.649 161.47 282.128 160.862 281.717C160.682 281.545 160.551 281.337 160.481 281.113C160.41 280.888 160.401 280.652 160.454 280.423C161.513 277.175 160.662 273.971 160.225 270.766C159.924 268.551 159.251 266.348 159.073 264.108C158.88 262.558 159.073 260.99 159.638 259.51C161.95 254.327 163.217 248.895 164.863 243.556C166.02 239.412 168.415 235.606 171.806 232.524C174.083 230.521 176.101 228.306 178.52 226.414C183.713 222.188 190.29 219.47 197.338 218.636C201.969 218.134 206.66 218.243 211.253 218.96C214.661 219.518 218.131 219.744 221.596 219.632C229.857 219.215 237.229 221.368 244.086 225.195C246.234 226.439 248.517 227.534 250.715 228.735C256.206 231.604 260.382 236.039 262.532 241.285C262.7 241.657 262.943 242.001 263.248 242.3C263.984 227.777 265.948 213.321 269.125 199.049C267.364 197.506 265.682 196.118 264.114 194.631C262.963 193.512 261.476 192.693 259.819 192.267C258.339 191.844 256.902 191.313 255.525 190.68C249.913 188.222 244.33 185.702 238.718 183.244C235.534 181.919 232.834 179.854 230.916 177.277C225.984 170.495 221.153 163.663 217.259 156.364C216.793 155.493 216.314 154.622 215.927 153.726C212.723 146.147 206.644 139.743 198.691 135.57C198.417 135.458 198.173 135.297 197.975 135.097C197.811 134.848 197.646 134.425 197.782 134.238C197.918 134.051 198.412 133.971 198.749 133.977C199.048 134.026 199.328 134.139 199.565 134.307C204.868 137.318 210.609 139.676 216.028 142.557C221.253 145.351 226.192 148.537 231.274 151.536C238.048 155.552 244.518 159.944 250.643 164.683C260.248 172.015 266.84 181.869 269.418 192.752C269.52 193.317 269.688 193.872 269.919 194.407C270.034 193.878 270.162 193.356 270.27 192.827C272.732 180.805 276.032 168.964 279.833 157.204C281.98 150.64 283.684 143.976 285.609 137.293C285.604 137.271 285.594 137.249 285.579 137.23C285.564 137.211 285.545 137.194 285.523 137.181C283.168 136.217 281.515 134.611 280.005 132.826C279.252 132.036 278.403 131.32 277.471 130.691C274.772 128.644 272.081 126.585 269.318 124.6C267.5 123.293 265.632 122.03 263.677 120.867C260.62 118.987 257.934 116.688 255.725 114.059C254.298 112.354 253.5 110.312 253.435 108.204C253.15 103.633 252.395 99.0939 251.18 94.6399C250.894 93.6132 250.536 92.599 250.171 91.591C249.507 89.6249 248.352 87.8106 246.788 86.2778C245.224 84.745 243.289 83.5316 241.123 82.7243C239.344 82.0448 237.634 81.235 236.012 80.3039C235.028 79.687 234.214 78.8879 233.629 77.9643C232.713 76.5581 233.514 75.4754 235.325 75.1768C238.296 74.6603 241.008 75.463 243.678 76.3465C247.415 77.591 251.101 78.9599 254.809 80.2728C258.517 81.5857 261.874 83.8008 265.374 85.6114C268.316 87.1359 271.286 88.623 274.264 90.1039C275.352 90.6452 276.49 91.1181 277.585 91.6532C280.545 93.0852 282.883 95.3211 284.242 98.0186C286.868 103.109 288.559 108.526 289.252 114.072C289.825 118.427 290.34 122.783 289.968 127.139C289.961 127.257 289.961 127.375 289.968 127.493L290.204 127.555C293.433 122.018 296.647 116.48 300.004 110.755C299.533 110.641 299.055 110.552 298.572 110.488C297.441 110.407 296.289 110.426 295.165 110.295C294.556 110.241 293.978 110.038 293.497 109.71C291.865 108.41 290.276 107.059 289.481 105.199C288.423 102.861 288.099 100.321 288.544 97.8381C289.106 95.1673 289.154 92.4338 288.687 89.7492C287.971 85.9163 288.887 82.1705 289.453 78.3874C290.362 72.327 294.12 67.623 298.493 63.1492C301.206 60.3741 304.076 57.6799 305.995 54.4007C307.29 52.1856 308.414 49.8959 309.574 47.631C310.869 45.1421 311.091 42.423 311.277 39.7536C311.556 35.7901 311.571 31.8078 311.742 27.8381C311.807 26.2452 311.95 24.6585 312.158 23.0843C312.208 22.6923 312.637 22.0576 312.923 22.0452C313.191 22.0592 313.452 22.1219 313.69 22.2291C313.928 22.3362 314.137 22.4855 314.305 22.6674C314.84 23.3121 315.28 24.0123 315.615 24.7518C317.533 28.7403 319.086 32.8407 319.416 37.1963C319.838 42.8772 321.212 48.3963 322.594 53.959C323.41 57.2194 323.861 60.5545 324.512 63.8523C324.877 65.6754 325.328 67.4923 325.75 69.3092C326.466 72.2959 327.182 75.2763 327.855 78.263C327.933 78.5803 327.991 78.8852 328.091 79.3519C328.422 79.1277 328.74 78.8889 329.043 78.6363C333.76 74.5011 339.426 71.2745 345.671 69.1661C349.636 67.8781 353.029 65.6941 356.615 63.8087C357.369 63.3422 358.086 62.8329 358.762 62.2843C364.188 58.551 369.936 55.2221 376.385 52.951C381.281 51.2274 386.334 50.2941 391.696 51.1465C396.604 51.9157 401.139 53.9364 404.723 56.9519C406.126 58.1195 407.631 59.1909 409.225 60.1563C416.399 64.4633 423.079 69.3599 429.174 74.7785C437.764 82.3614 446.009 90.2242 453.912 98.367C455.243 99.7297 456.474 101.167 457.727 102.579C458.078 102.978 458.486 103.531 457.884 103.892C457.642 103.991 457.378 104.042 457.111 104.042C456.844 104.042 456.58 103.991 456.338 103.892C455.286 103.438 454.341 102.803 453.318 102.293C452.615 101.899 451.854 101.59 451.056 101.372C446.915 100.494 442.836 99.4118 438.837 98.1306C436.532 97.3714 434.013 97.135 431.679 96.5003C426.44 95.0879 421.229 93.5821 416.018 92.1074C414.93 91.7963 413.849 91.4645 412.776 91.1119C409.239 89.912 405.395 89.5679 401.652 90.1163C394.988 91.1119 388.417 90.3465 381.882 89.239C379.534 88.8408 377.273 88.0817 374.939 87.5963C371.883 86.9741 368.798 86.439 365.734 85.8479C364.199 85.6033 362.778 84.9771 361.643 84.0451C360.509 83.113 359.71 81.9151 359.342 80.5963C358.626 78.431 358.354 76.1785 357.853 73.9696C357.402 71.9599 356.951 69.9439 356.422 67.9528C356.227 67.4653 355.88 67.0345 355.42 66.7083C355.265 66.6163 355.087 66.559 354.901 66.5416C354.715 66.5242 354.526 66.5473 354.353 66.6088C350.631 68.9359 346.336 70.2799 342.221 71.935C337.926 73.6648 334.39 76.3528 330.768 78.9972C328.921 80.3537 328.377 81.623 328.928 83.7323C329.752 86.6425 329.867 89.6702 329.265 92.6212C328.664 95.5722 327.359 98.3813 325.435 100.868C323.013 103.932 319.812 106.47 316.08 108.285C313.281 109.735 310.354 111.048 307.111 111.396C305.235 111.496 303.354 111.496 301.478 111.396C301.371 111.564 301.156 111.869 300.97 112.187L291.815 127.786C288.694 133.124 286.762 138.805 285.094 144.586C282.231 154.429 279.239 164.136 276.375 173.892C275.817 175.759 275.395 177.694 274.887 179.679C275.066 179.58 275.151 179.555 275.187 179.505C279.01 173.731 282.918 168 286.64 162.17C288.902 158.604 290.935 154.908 292.896 151.219C296.468 144.505 300.834 138.132 305.923 132.203C311.32 125.981 318.285 121.377 326.03 117.544C332.237 114.431 339.257 112.748 346.422 112.653C349.4 112.61 352.378 112.653 355.348 112.74C360.788 112.952 366.164 112.398 371.553 111.969C374.273 111.751 377.022 111.844 379.764 111.813C380.07 111.821 380.372 111.874 380.658 111.969C380.86 111.998 381.047 112.081 381.193 112.205C381.339 112.33 381.438 112.49 381.477 112.665C381.515 112.84 381.49 113.021 381.407 113.184C381.323 113.346 381.184 113.482 381.009 113.574C380.558 113.878 380.052 114.115 379.513 114.277C375.018 115.758 370.53 117.251 366.013 118.633C360.659 120.406 355.673 122.928 351.254 126.099C349.708 127.229 348.356 128.545 347.238 130.007C345.57 132.06 344.11 134.244 342.643 136.416C340.293 139.852 337.044 142.758 333.159 144.897C328.816 147.468 324.033 149.425 318.986 150.696C314.743 151.694 310.699 153.244 306.99 155.294C306.481 155.587 305.945 155.841 305.386 156.053C299.732 158.206 294.807 161.311 290.19 164.814C289.779 165.161 289.334 165.475 288.859 165.754C285.444 167.62 283.061 170.327 280.985 173.22C278.63 176.623 276.535 180.156 274.715 183.798C272.718 187.668 272.074 191.725 271.293 195.782C269.669 204.213 268.251 212.676 266.755 221.132C266.608 221.896 266.56 222.672 266.612 223.446C266.77 223.216 266.949 222.992 267.099 222.756C268.237 221.032 269.289 219.259 270.506 217.585C274.643 211.904 280.484 207.841 287.277 204.836C292.481 202.527 297.935 200.716 303.812 200.063C307.441 199.559 311.155 199.771 314.677 200.685C316.229 201.135 317.696 201.783 319.029 202.608C322.694 204.879 326.273 207.256 329.845 209.633C334.636 212.791 338.525 216.866 341.211 221.542C343.581 225.661 346.422 229.581 348.641 233.756C352.528 241.055 357.588 247.788 361.762 254.943C363.629 258.188 365.003 261.631 365.849 265.185C365.963 265.67 366.035 266.23 365.405 266.361C365.151 266.4 364.891 266.389 364.643 266.329C364.395 266.269 364.166 266.16 363.973 266.012C363.064 265.26 362.341 264.345 361.439 263.586C353.566 256.878 346.565 249.449 339.637 241.995C335.528 237.577 330.575 234.528 324.061 233.663C322.588 233.488 321.102 233.409 319.616 233.427C315.321 233.377 311.227 232.643 307.584 230.484C305.207 229.131 303.33 227.21 302.18 224.952C301.406 223.403 300.748 221.797 299.953 220.267C298.522 217.554 297.14 214.822 295.523 212.178C294.034 209.782 291.5 208.233 288.923 206.783C288.519 206.534 288.037 206.401 287.542 206.401C287.047 206.401 286.564 206.534 286.16 206.783C279.375 210.292 273.677 214.723 269.984 220.895C269.332 221.984 268.666 223.067 267.972 224.137C266.483 226.49 265.647 229.113 265.531 231.796C264.887 243.021 264.267 254.248 263.67 265.477C263.484 268.887 263.413 272.322 263.291 275.719V276.783L263.541 276.852L264.085 275.943C267.37 269.99 271.293 264.319 275.803 259.006C278.342 256.059 281.204 253.334 284.349 250.868C288.16 247.836 293.081 246.073 298.243 245.89C302.808 245.558 307.399 245.618 311.95 246.07C312.436 246.106 312.917 246.19 313.382 246.319C316.431 247.364 319.473 248.435 322.508 249.505C322.763 249.573 322.991 249.703 323.166 249.878C323.404 250.119 323.536 250.426 323.539 250.743C323.481 250.986 323.088 251.241 322.78 251.365C322.314 251.494 321.834 251.579 321.348 251.62C314.577 252.523 309.566 255.733 305.859 260.618C304.957 261.806 304.112 263.026 303.26 264.245C300.068 268.819 295.673 271.675 289.295 271.886C285.645 272.011 281.987 272.235 278.344 272.508C277.172 272.593 276.03 272.872 274.98 273.33C273.608 273.976 272.313 274.738 271.114 275.607C269.16 276.976 267.299 278.444 265.388 279.857C265.097 280.118 264.723 280.3 264.314 280.38C263.312 280.442 263.277 281.002 263.305 281.624C263.534 286.764 263.713 291.897 263.985 297.03C264.615 309.089 265.276 321.146 265.968 333.2C266.233 337.73 266.684 342.26 267.063 346.789C267.066 346.899 267.094 347.008 267.146 347.108C267.197 347.209 267.271 347.299 267.364 347.374C267.478 347.044 267.593 346.752 267.686 346.391C268.81 342.465 269.969 338.551 271.043 334.619C272.312 329.982 274.098 325.464 276.375 321.129C277.914 318.192 279.561 315.286 280.906 312.281C284.729 303.732 291.822 297.852 300.948 293.676C310.168 289.368 320.473 287.115 330.94 287.118C338.484 287.118 345.492 288.618 351.919 292.183C354.969 293.869 358.283 295.176 361.418 296.75C363.651 297.883 365.834 299.102 367.946 300.403C369.798 301.552 371.152 303.208 371.79 305.107C372.298 306.525 371.84 307.104 370.165 306.973C368.996 306.838 367.837 306.647 366.693 306.401C359.886 305.156 353.036 304.534 346.172 305.94C344.269 306.407 342.429 307.047 340.682 307.851C337.661 309.095 334.726 310.545 331.72 311.833C329.047 313.007 326.063 313.541 323.073 313.382C322.501 313.382 321.914 313.681 321.327 313.693C315.751 313.824 310.433 315.218 305 316.064C303.047 316.345 301.064 316.443 299.087 316.356C295.029 316.238 291.006 316.257 287.026 317.06C283.691 317.738 280.964 319.163 279.196 321.807C278.788 322.429 278.322 322.971 277.871 323.549C277.728 323.742 277.599 324.041 277.392 324.091C276.082 324.402 275.889 325.435 275.595 326.3C274.092 330.78 272.632 335.274 271.215 339.783C270.162 343.137 269.253 346.528 268.18 349.882C267.756 351.121 267.658 352.426 267.893 353.702C268.974 359.302 269.998 364.902 271.114 370.502C274.242 386.12 278.723 401.489 282.567 416.982C285.13 427.392 287.37 437.845 289.102 448.386C289.424 450.352 289.975 452.287 290.362 454.241C290.419 454.527 290.154 454.863 290.04 455.168C289.689 455.025 289.188 454.963 289.023 454.72C288.76 454.281 288.591 453.805 288.522 453.314C287.026 445.567 285.767 437.758 284.02 430.074C281.644 419.577 279.01 409.111 276.275 398.67C272.696 384.981 269.525 371.249 266.97 357.404C265.653 349.58 264.822 341.7 264.479 333.797C264.221 329.392 263.978 324.987 263.878 320.575C263.878 319.231 262.883 318.509 262.024 317.75C260.813 316.798 259.547 315.901 258.23 315.062C257.738 314.67 257.142 314.39 256.495 314.248C255.848 314.106 255.17 314.105 254.523 314.247C253.025 314.617 251.44 314.628 249.936 314.28C248.432 313.931 247.064 313.237 245.976 312.268C244.393 311.024 242.919 309.678 241.567 308.243C238.811 305.156 235.804 302.245 232.569 299.532C229.362 296.609 226.401 293.49 223.708 290.198C220.916 286.932 217.917 283.789 214.889 280.678C213.742 279.617 212.484 278.651 211.132 277.791C209.356 276.547 207.553 275.346 205.763 274.058C205.412 273.803 205.298 273.299 205.047 272.907C205.504 272.676 206.007 272.522 206.529 272.452C209.571 272.608 212.613 272.776 215.634 273.075C216.842 273.235 218.015 273.554 219.113 274.02C223.621 275.707 227.812 277.972 231.546 280.74C236.234 284.393 241.008 287.958 245.668 291.636C252.11 296.694 257.486 302.45 261.158 309.319C261.967 310.844 262.461 312.492 263.105 314.085C263.198 314.328 263.277 314.577 263.362 314.82L263.549 314.782ZM313.79 24.3847H313.475C313.417 25.4674 313.339 26.5563 313.31 27.6389C313.238 30.9554 313.31 34.2718 313.081 37.5945C313.002 40.3801 312.58 43.1504 311.821 45.8576C310.236 50.857 307.512 55.5289 303.812 59.5963C301.449 62.1599 299.03 64.6799 296.654 67.2434C293.804 70.2567 291.916 73.868 291.178 77.7154C290.462 81.5732 289.496 85.4185 290.204 89.3572C290.647 92.2862 290.606 95.2552 290.083 98.1741C289.925 99.0257 289.853 99.8877 289.868 100.75C289.929 102.178 290.319 103.582 291.017 104.876C291.714 106.171 292.703 107.33 293.927 108.285C294.454 108.656 295.083 108.902 295.752 109.001C297.799 109.349 299.882 109.573 301.936 109.922C304.45 110.388 307.063 110.233 309.481 109.474C313.921 108.106 317.963 105.907 321.32 103.034C323.712 101.032 325.55 98.5852 326.697 95.8768C327.844 93.1684 328.269 90.2691 327.941 87.3972C327.483 82.7243 326.352 78.0639 325.385 73.4594C324.67 70.0123 323.682 66.615 322.916 63.1554C322.25 60.1625 321.878 57.1199 321.126 54.1519C319.695 48.6079 318.342 43.0763 317.927 37.3954C317.619 33.1332 316.094 29.1509 314.255 25.2372C314.14 25.0069 313.933 24.6896 313.79 24.3847ZM356.937 65.6754C357.3 66.0499 357.597 66.4693 357.818 66.9199C358.362 69.0479 358.848 71.1883 359.314 73.3288C359.779 75.4692 360.087 77.7963 360.745 79.9679C361.525 82.6185 363.608 84.1181 366.765 84.6221C371.08 85.2385 375.504 84.9266 379.649 83.7137C385.039 82.2763 390.465 80.9385 395.869 79.5137C400.103 78.4196 404.635 78.5794 408.753 79.9679C410.972 80.6648 413.169 81.4425 415.302 82.3137C423.956 85.8417 432.009 90.2843 440.212 94.503C443.912 96.407 447.77 98.087 451.578 99.8292C452.29 100.104 453.024 100.331 453.776 100.507C453.742 100.242 453.612 99.9938 453.404 99.7981C451.743 98.1057 450.097 96.407 448.393 94.7332C441.832 88.1874 435.044 81.8159 428.029 75.6185C422.094 70.3221 415.592 65.53 408.61 61.3074C406.848 60.2196 405.174 59.0284 403.599 57.7421C397.336 52.7643 390.121 50.9972 381.825 52.7643C376.908 53.7972 372.52 55.7945 368.225 58.0781C364.444 60.0825 360.885 62.3884 357.596 64.9661C357.351 65.189 357.133 65.4329 356.944 65.6941L356.937 65.6754ZM242.154 225.78C241.696 225.524 241.366 225.319 241.023 225.157C235.411 222.395 229.47 220.752 222.921 220.964C219.374 221.153 215.815 220.986 212.313 220.466C207.593 219.654 202.758 219.471 197.975 219.924C191.21 220.619 184.871 223.156 179.866 227.173C177.432 229.04 175.364 231.311 173.052 233.333C169.761 236.312 167.439 239.997 166.323 244.011C164.699 249.287 163.525 254.676 161.134 259.772C160.503 261.276 160.326 262.895 160.619 264.476C161.234 268.713 162.458 272.882 162.523 277.188C162.523 277.231 162.587 277.281 162.694 277.418L163.195 276.534C165.944 271.681 168.643 266.79 172.987 262.808C175.457 260.556 177.998 258.34 180.653 256.262C183.843 253.691 187.821 251.977 192.106 251.328C195.313 250.855 198.369 250.152 201.01 248.254C203.551 246.506 205.771 244.434 207.596 242.107C209.249 239.916 211.039 237.851 213.601 236.451C217.28 234.447 221.031 232.537 224.81 230.683C229.105 228.598 233.493 226.794 238.41 226.209C239.57 226.06 240.765 225.935 242.154 225.78ZM286.482 165.461L286.532 165.586C287.399 165.007 288.293 164.459 289.109 163.843C293.855 160.253 298.887 157.067 304.678 154.852C305.234 154.635 305.77 154.381 306.281 154.093C310.023 152.032 314.098 150.468 318.371 149.451C323.142 148.259 327.679 146.447 331.827 144.075C335.708 142.008 338.956 139.156 341.297 135.763C342.657 133.728 344.003 131.681 345.592 129.764C346.85 128.108 348.352 126.602 350.058 125.284C354.462 122.043 359.454 119.461 364.832 117.643L377.165 113.686C377.566 113.555 377.953 113.4 378.346 113.257C378.334 113.139 378.308 113.022 378.268 112.908C376.12 113.027 374.03 113.076 371.926 113.275C366.049 113.848 360.172 114.333 354.239 114.072C351.69 113.954 349.135 113.972 346.58 114.003C341.18 113.984 335.838 114.975 330.918 116.909C319.68 121.514 310.297 128.066 303.625 137.299C299.738 142.489 296.298 147.921 293.332 153.552C291.257 157.609 288.773 161.498 286.482 165.461ZM370.315 305.692C369.82 303.949 368.611 302.423 366.915 301.398C365.097 300.246 363.212 299.177 361.268 298.194C357.338 296.234 353.33 294.386 349.371 292.457C345.987 290.708 342.255 289.526 338.37 288.972C329.761 287.897 320.983 288.548 312.709 290.876C304.785 293.073 297.441 296.221 291.292 301.224C288.716 303.259 286.54 305.647 284.85 308.292C284.686 308.566 284.543 308.852 284.392 309.132L284.578 309.288C286.726 307.421 289.446 306.457 292.273 305.766C293.337 305.525 294.44 305.435 295.537 305.499C299.467 305.705 303.3 306.645 306.775 308.255C309.189 309.337 311.76 310.128 314.419 310.607C315.686 310.831 316.932 311.161 318.192 311.416C322.694 312.349 327.11 312.387 331.348 310.483C334.361 309.132 337.396 307.813 340.374 306.407C343.156 305.09 346.217 304.279 349.371 304.024C355.573 303.499 361.832 303.92 367.867 305.268C368.633 305.436 369.37 305.53 370.315 305.692ZM286.396 134.991L286.812 134.835C287.155 133.759 287.592 132.695 287.821 131.6C288.696 127.117 288.85 122.549 288.279 118.029C287.742 112.513 286.469 107.069 284.485 101.808C282.531 96.8301 279.174 93.2337 273.548 91.2674C272.915 91.0384 272.3 90.7723 271.709 90.471C269.697 89.4568 267.636 88.5048 265.71 87.3599C260.464 84.3234 255.167 81.3741 249.083 79.7314C247.851 79.3954 246.706 78.8354 245.504 78.4372C243.633 77.7638 241.721 77.1801 239.777 76.6888C238.482 76.4671 237.157 76.4001 235.841 76.4896C234.824 76.4896 234.638 76.8754 235.189 77.6345C235.552 78.1386 236.012 78.5848 236.549 78.9537C237.384 79.5319 238.295 80.0227 239.262 80.4159C242.325 81.6411 245.236 83.1338 247.952 84.871C249.046 85.585 250.041 86.4077 250.915 87.3225C252.275 88.6541 253.449 90.135 254.837 91.4479C256.792 93.2253 258.4 95.2682 259.597 97.4959C261.401 101.036 262.947 104.676 264.608 108.267C265.409 110.268 266.339 112.229 267.392 114.14C271.043 119.929 275.479 125.317 280.606 130.187C282.374 131.923 284.435 133.404 286.396 134.991ZM267.965 196.118L268.38 196C268.18 194.756 268.087 193.511 267.765 192.31C265.138 182.46 259.762 173.911 251.237 167.017C246.829 163.495 242.216 160.172 237.415 157.061C231.546 153.21 225.497 149.551 219.413 145.961C216.328 144.138 212.971 142.638 209.779 140.983C209.447 140.826 209.105 140.685 208.755 140.56C209.344 141.321 209.98 142.054 210.659 142.756C213.414 145.936 215.676 149.417 217.388 153.11C221.511 161.603 227.036 169.425 232.784 177.134C234.417 179.195 236.657 180.837 239.269 181.888C244.931 184.377 250.593 186.928 256.276 189.417C257.587 190.02 258.954 190.526 260.363 190.929C262.245 191.389 263.928 192.322 265.202 193.611C266.061 194.525 267.07 195.316 267.965 196.118V196.118ZM363.479 263.604L363.766 263.43C363.016 260.736 361.907 258.128 360.459 255.659C356.458 248.646 351.44 242.125 347.661 235.007C345.406 230.77 342.5 226.8 340.13 222.606C337.359 217.707 333.272 213.459 328.213 210.224C325.464 208.438 322.594 206.777 319.988 204.848C316.073 201.936 311.563 201.021 306.589 201.22C300.605 201.457 295.136 203.199 289.746 205.346C289.696 205.346 289.682 205.452 289.703 205.414C290.884 206.279 292.023 207.144 293.211 207.959C294.857 209.104 296.661 210.1 298.185 211.356C300.884 213.572 304.112 215.09 307.19 216.782C309.738 218.188 312.444 219.377 315.593 219.402C317.86 219.455 320.063 220.063 321.95 221.156C325.503 223.039 328.581 225.528 330.997 228.474C332.959 230.883 335.111 233.17 337.439 235.318C339.129 236.936 340.657 238.676 342.006 240.52C343.946 243.084 345.334 245.989 348.111 248.049C348.283 248.222 348.412 248.423 348.491 248.64C348.679 249.058 348.919 249.456 349.207 249.828C350.932 251.608 352.65 253.381 354.446 255.092C357.381 257.967 360.459 260.773 363.479 263.604ZM320.754 250.308C318.485 249.499 316.459 248.74 314.398 248.068C313.45 247.724 312.445 247.514 311.42 247.445C307.197 247.327 302.967 247.178 298.744 247.284C293.651 247.352 288.773 249.077 285.072 252.118C281.828 254.736 278.882 257.62 276.275 260.73C271.732 266.261 267.79 272.148 264.501 278.314C264.451 278.433 264.415 278.556 264.393 278.681C266.405 277.244 268.301 275.819 270.284 274.487C271.589 273.572 272.988 272.764 274.464 272.073C275.624 271.582 276.879 271.283 278.165 271.189C281.744 270.903 285.323 270.685 288.902 270.567C294.385 270.405 298.486 268.246 301.421 264.295C301.922 263.629 302.401 262.951 302.852 262.26C304.427 259.948 306.295 257.796 308.421 255.845C310.534 253.826 313.219 252.324 316.209 251.49C317.59 251.116 319.015 250.762 320.754 250.308ZM208.111 273.641L207.996 273.977C209.228 274.786 210.487 275.564 211.69 276.41C213.201 277.361 214.612 278.428 215.906 279.596C219.005 282.738 222.04 285.936 224.882 289.259C227.573 292.551 230.535 295.671 233.743 298.592C237.003 301.334 240.03 304.279 242.798 307.403C244.157 308.834 245.64 310.171 247.236 311.404C248.075 312.142 249.126 312.672 250.28 312.939C251.434 313.206 252.649 313.2 253.8 312.922C254.887 312.658 256.038 312.671 257.117 312.96C258.196 313.249 259.156 313.802 259.884 314.552C260.479 315.026 261.107 315.466 261.766 315.871L262.117 315.666C261.401 313.868 260.843 312.007 259.97 310.271C256.491 303.501 251.223 297.827 244.988 292.892C240.178 289.06 235.225 285.376 230.358 281.605C226.822 278.968 222.85 276.808 218.576 275.196C217.329 274.7 216.009 274.354 214.653 274.17C212.484 273.896 210.294 273.815 208.111 273.641ZM375.211 86.2274C375.862 86.3768 376.371 86.4888 376.879 86.6132L378.418 87.0052C385.876 88.9279 393.449 89.8052 401.223 88.7972C405.267 88.2293 409.412 88.5874 413.248 89.8363C414.314 90.191 415.395 90.4897 416.483 90.8319C421.6 92.5558 426.824 94.0286 432.13 95.2434C435.674 95.9963 439.288 96.5563 442.631 97.9314C442.958 98.0378 443.296 98.1169 443.64 98.1679C443.623 98.0908 443.587 98.0178 443.536 97.9534C443.484 97.8891 443.417 97.835 443.34 97.7946C438.436 95.2372 433.555 92.655 428.637 90.1225C422.637 86.9083 416.354 84.11 409.848 81.7537C405.21 80.1545 400.543 79.6568 395.668 80.9634C388.911 82.7679 382.14 84.4479 375.211 86.2274ZM298.257 213.54C298.973 214.828 299.753 216.253 300.462 217.709C301.435 219.725 302.337 221.766 303.268 223.795C304.591 226.655 307.095 228.983 310.289 230.322C313.575 231.809 317.104 232.064 320.718 232.108C323.892 232.102 327.036 232.64 329.97 233.692C332.905 234.744 335.571 236.288 337.818 238.236L338.677 238.94L338.871 238.778C338.248 238.156 337.604 237.589 337.002 236.967C334.619 234.516 332.049 232.176 329.938 229.563C327.623 226.717 324.691 224.292 321.305 222.426C319.56 221.393 317.511 220.814 315.4 220.758C313.06 220.714 310.773 220.142 308.765 219.097C305.193 217.274 301.678 215.332 298.257 213.54ZM316.588 312.611L316.653 312.492C316.34 312.391 316.019 312.308 315.694 312.244C311.871 311.608 308.176 310.489 304.728 308.921C302.139 307.851 299.365 307.159 296.518 306.874C292.896 306.438 289.882 307.664 287.005 309.288C284.285 310.819 282.882 313.326 281.207 315.604C280.348 316.78 279.711 318.092 278.974 319.337L279.167 319.461C281.944 316.643 285.716 315.597 289.711 315.249C292.924 314.975 296.153 315.1 299.409 315.037C300.817 315.088 302.226 315.043 303.625 314.9C307.963 314.204 312.272 313.37 316.588 312.586V312.611ZM251.452 90.4772C251.896 91.8337 252.325 92.9972 252.654 94.2105C253.913 98.754 254.689 103.388 254.973 108.055C255.039 110.086 255.843 112.047 257.271 113.655C259.603 116.283 262.409 118.565 265.581 120.412C267.483 121.559 269.302 122.806 271.029 124.146C272.46 125.166 273.756 126.261 275.13 127.319C275.341 127.455 275.567 127.574 275.803 127.674C274.679 126.155 273.484 124.737 272.295 123.318C268.953 119.348 265.853 115.291 263.871 110.619C262.36 107.01 260.685 103.451 259.096 99.8666C257.422 96.2433 254.808 93.0046 251.459 90.4025L251.452 90.4772ZM206.107 246.101C209.45 244.589 212.778 243.127 216.049 241.584C217.834 240.762 219.556 239.839 221.203 238.821C223.565 237.316 225.834 235.71 228.096 234.08C232.154 231.162 236.843 229.283 241.696 227.715C241.953 227.628 242.197 227.516 242.411 227.416C242.123 227.279 241.795 227.216 241.467 227.236C238.305 227.411 235.192 228 232.233 228.984C227.122 230.77 222.462 233.34 217.66 235.623C214.759 236.913 212.221 238.745 210.23 240.987C208.891 242.667 207.524 244.396 206.107 246.101Z" fill="#BD8846" fill-opacity="0.7" stroke="#BD8846" stroke-opacity="0.7" stroke-width="1.1" stroke-miterlimit="10"/>
</svg>
