<svg width="30" height="30" viewBox="0 0 30 30" fill="none" xmlns="http://www.w3.org/2000/svg">
<path fill-rule="evenodd" clip-rule="evenodd" d="M1.24991 4.07271C1.24991 3.47709 1.49197 2.90586 1.92283 2.48469C2.3537 2.06352 2.93807 1.82691 3.54741 1.82691H26.4499C26.7519 1.82643 27.051 1.88417 27.3301 1.99683C27.6092 2.10949 27.8628 2.27486 28.0765 2.48347C28.2901 2.69207 28.4596 2.93982 28.5751 3.21253C28.6907 3.48523 28.7501 3.77754 28.7499 4.07271V26.4599C28.7502 26.7551 28.691 27.0475 28.5756 27.3204C28.4602 27.5932 28.2909 27.8411 28.0774 28.0499C27.8639 28.2588 27.6104 28.4244 27.3313 28.5373C27.0523 28.6503 26.7532 28.7083 26.4512 28.7082H3.54741C3.24559 28.7082 2.94673 28.65 2.6679 28.5371C2.38908 28.4242 2.13575 28.2586 1.92239 28.0499C1.70903 27.8413 1.53982 27.5936 1.42444 27.3209C1.30905 27.0483 1.24974 26.7562 1.24991 26.4611V4.07271ZM12.1349 12.076H15.8587V13.9039C16.3962 12.8531 17.7712 11.9074 19.8374 11.9074C23.7987 11.9074 24.7374 14.0004 24.7374 17.8408V24.9546H20.7287V18.7157C20.7287 16.5285 20.1912 15.2944 18.8262 15.2944C16.9324 15.2944 16.1449 16.625 16.1449 18.7157V24.9546H12.1349V12.076ZM5.25991 24.7872H9.26991V11.9074H5.25991V24.7859V24.7872ZM9.84366 7.70657C9.85122 8.04219 9.79012 8.3759 9.66396 8.68812C9.53779 9.00034 9.3491 9.28479 9.10895 9.52476C8.8688 9.76473 8.58203 9.9554 8.26548 10.0856C7.94892 10.2157 7.60896 10.2828 7.26553 10.2828C6.92211 10.2828 6.58215 10.2157 6.26559 10.0856C5.94904 9.9554 5.66227 9.76473 5.42212 9.52476C5.18197 9.28479 4.99328 9.00034 4.86711 8.68812C4.74094 8.3759 4.67985 8.04219 4.68741 7.70657C4.70225 7.0478 4.98039 6.4209 5.46227 5.96013C5.94414 5.49935 6.59144 5.24134 7.26553 5.24134C7.93963 5.24134 8.58693 5.49935 9.0688 5.96013C9.55068 6.4209 9.82882 7.0478 9.84366 7.70657V7.70657Z" fill="#955843"/>
</svg>
