<svg width="30" height="30" viewBox="0 0 30 30" fill="none" xmlns="http://www.w3.org/2000/svg">
<path d="M27.1875 5.18701H2.8125C2.29395 5.18701 1.875 5.59653 1.875 6.10342V24.4315C1.875 24.9384 2.29395 25.3479 2.8125 25.3479H27.1875C27.7061 25.3479 28.125 24.9384 28.125 24.4315V6.10342C28.125 5.59653 27.7061 5.18701 27.1875 5.18701ZM26.0156 8.36007V23.286H3.98438V8.36007L3.17578 7.74436L4.32715 6.29815L5.58105 7.25179H24.4219L25.6758 6.29815L26.8271 7.74436L26.0156 8.36007V8.36007ZM24.4219 7.24893L15 14.4083L5.57812 7.24893L4.32422 6.29529L3.17285 7.74149L3.98145 8.3572L13.9893 15.9634C14.2771 16.1819 14.6311 16.3006 14.9956 16.3006C15.3601 16.3006 15.7141 16.1819 16.002 15.9634L26.0156 8.36007L26.8242 7.74436L25.6729 6.29815L24.4219 7.24893Z" fill="#955843"/>
</svg>
