<svg width="72" height="28" viewBox="0 0 72 28" fill="none" xmlns="http://www.w3.org/2000/svg">
<rect x="0.75" y="1.35498" width="70.5" height="25.87" rx="1.875" stroke="#955843" stroke-width="1.5"/>
<path d="M11.8076 14.4102H12.8864C13.61 14.4102 14.1342 14.2759 14.4592 14.0073C14.7841 13.7386 14.9466 13.34 14.9466 12.8114C14.9466 12.2742 14.7711 11.8886 14.4202 11.6546C14.0692 11.4206 13.5407 11.3037 12.8344 11.3037H11.8076V14.4102ZM11.8076 15.697V19.4924H10.2543V9.99086H12.9384C14.1646 9.99086 15.0723 10.2205 15.6615 10.6798C16.2507 11.139 16.5454 11.8322 16.5454 12.7594C16.5454 13.9423 15.9301 14.785 14.6996 15.2876L17.3837 19.4924H15.616L13.3413 15.697H11.8076ZM24.1427 19.4924H18.768V9.99086H24.1427V11.3037H20.3213V13.8903H23.9023V15.1901H20.3213V18.1731H24.1427V19.4924ZM31.6816 16.9123C31.6816 17.7572 31.3761 18.4201 30.7652 18.901C30.1543 19.3819 29.3116 19.6224 28.2371 19.6224C27.1626 19.6224 26.2831 19.4556 25.5985 19.122V17.6532C26.0318 17.8568 26.491 18.0172 26.9763 18.1341C27.4659 18.2511 27.9208 18.3096 28.3411 18.3096C28.9563 18.3096 29.4091 18.1926 29.6994 17.9587C29.994 17.7247 30.1413 17.4106 30.1413 17.0163C30.1413 16.661 30.007 16.3599 29.7384 16.1129C29.4698 15.866 28.9152 15.5735 28.0746 15.2356C27.2081 14.8846 26.5972 14.4839 26.2419 14.0333C25.8866 13.5827 25.709 13.0411 25.709 12.4085C25.709 11.6156 25.9906 10.9917 26.5539 10.5368C27.1171 10.0818 27.8732 9.85438 28.822 9.85438C29.7319 9.85438 30.6374 10.0537 31.5386 10.4523L31.0447 11.7196C30.1998 11.3643 29.4459 11.1867 28.783 11.1867C28.2804 11.1867 27.8992 11.2972 27.6392 11.5181C27.3792 11.7348 27.2493 12.0229 27.2493 12.3825C27.2493 12.6295 27.3013 12.8418 27.4052 13.0194C27.5092 13.1927 27.6804 13.3574 27.9187 13.5133C28.157 13.6693 28.5859 13.8751 29.2055 14.1307C29.903 14.421 30.4143 14.6918 30.7392 14.9431C31.0642 15.1944 31.3025 15.4782 31.4541 15.7945C31.6058 16.1108 31.6816 16.4834 31.6816 16.9123ZM40.9687 9.99086V16.1389C40.9687 16.8408 40.8171 17.4561 40.5138 17.9847C40.2148 18.5089 39.7794 18.914 39.2075 19.2C38.6399 19.4816 37.9596 19.6224 37.1668 19.6224C35.9883 19.6224 35.0719 19.3105 34.4177 18.6866C33.7634 18.0626 33.4363 17.2048 33.4363 16.1129V9.99086H34.9961V16.0025C34.9961 16.7867 35.1781 17.3651 35.542 17.7377C35.906 18.1103 36.4649 18.2966 37.2188 18.2966C38.6832 18.2966 39.4154 17.5276 39.4154 15.9895V9.99086H40.9687ZM47.5067 19.4924L44.7511 11.5571H44.6991C44.7728 12.7356 44.8096 13.8404 44.8096 14.8716V19.4924H43.3993V9.99086H45.5895L48.2281 17.5492H48.2671L50.9837 9.99086H53.1804V19.4924H51.6856V14.7936C51.6856 14.3214 51.6964 13.7061 51.7181 12.9479C51.7441 12.1897 51.7657 11.7304 51.7831 11.5701H51.7311L48.878 19.4924H47.5067ZM61.0572 19.4924H55.6825V9.99086H61.0572V11.3037H57.2358V13.8903H60.8167V15.1901H57.2358V18.1731H61.0572V19.4924Z" fill="#955843"/>
</svg>
