<svg width="30" height="30" viewBox="0 0 30 30" fill="none" xmlns="http://www.w3.org/2000/svg">
<path d="M29.5536 6.61501C28.5099 7.06711 27.3886 7.37258 26.2099 7.51065C27.4261 6.79926 28.3361 5.67963 28.7699 4.36066C27.6272 5.02412 26.3766 5.49113 25.0724 5.74137C24.1954 4.82603 23.0337 4.21932 21.7678 4.01544C20.5019 3.81157 19.2025 4.02194 18.0714 4.61389C16.9404 5.20584 16.0409 6.14626 15.5126 7.28913C14.9843 8.432 14.8568 9.71338 15.1499 10.9343C12.8345 10.8207 10.5694 10.2324 8.50167 9.20772C6.43392 8.183 4.60969 6.74473 3.14739 4.98626C2.64739 5.82935 2.35989 6.80685 2.35989 7.84789C2.35933 8.78506 2.59543 9.70788 3.04724 10.5345C3.49905 11.361 4.15259 12.0658 4.94989 12.5863C4.02524 12.5576 3.12098 12.3133 2.31239 11.874V11.9473C2.3123 13.2617 2.77743 14.5357 3.62887 15.553C4.48031 16.5704 5.66561 17.2685 6.98364 17.5288C6.12587 17.7557 5.22656 17.7891 4.35364 17.6266C4.72551 18.7575 5.44989 19.7465 6.42535 20.4551C7.40082 21.1637 8.57854 21.5563 9.79364 21.5781C7.73093 23.1609 5.1835 24.0195 2.56114 24.0157C2.09662 24.0159 1.63249 23.9893 1.17114 23.9363C3.83299 25.6093 6.93157 26.4971 10.0961 26.4937C20.8086 26.4937 26.6649 17.8208 26.6649 10.299C26.6649 10.0546 26.6586 9.80777 26.6474 9.5634C27.7865 8.75815 28.7698 7.76101 29.5511 6.61868L29.5536 6.61501V6.61501Z" fill="#955843"/>
</svg>
